<svg width="76" height="22" viewBox="0 0 76 22" fill="none" xmlns="http://www.w3.org/2000/svg">
<path d="M0 6C0 2.68629 2.68629 0 6 0H70C73.3137 0 76 2.68629 76 6V16C76 19.3137 73.3137 22 70 22H6C2.68629 22 0 19.3137 0 16V6Z" fill="#0EA5E9" fill-opacity="0.8"/>
<path d="M13.5433 15.0994C13.013 15.0994 12.5407 15.0083 12.1264 14.826C11.7145 14.6413 11.389 14.388 11.1499 14.0661C10.9131 13.7417 10.7912 13.3677 10.7841 12.9439H12.3324C12.3419 13.1214 12.3999 13.2777 12.5064 13.4126C12.6153 13.5452 12.7597 13.6482 12.9396 13.7216C13.1196 13.795 13.322 13.8317 13.5469 13.8317C13.7812 13.8317 13.9884 13.7902 14.1683 13.7074C14.3482 13.6245 14.4891 13.5097 14.5909 13.3629C14.6927 13.2161 14.7436 13.0469 14.7436 12.8551C14.7436 12.661 14.6892 12.4893 14.5803 12.3402C14.4737 12.1887 14.3198 12.0703 14.1186 11.9851C13.9197 11.8999 13.683 11.8572 13.4084 11.8572H12.7301V10.728H13.4084C13.6404 10.728 13.8452 10.6877 14.0227 10.6072C14.2027 10.5268 14.3423 10.4155 14.4418 10.2734C14.5412 10.129 14.5909 9.96094 14.5909 9.76918C14.5909 9.58688 14.5471 9.42708 14.4595 9.28977C14.3743 9.15009 14.2536 9.04119 14.0973 8.96307C13.9434 8.88494 13.7635 8.84588 13.5575 8.84588C13.3492 8.84588 13.1586 8.88376 12.9858 8.95952C12.813 9.03291 12.6745 9.13826 12.5703 9.27557C12.4661 9.41288 12.4105 9.57386 12.4034 9.75852H10.9297C10.9368 9.33949 11.0563 8.97017 11.2884 8.65057C11.5204 8.33097 11.8329 8.0812 12.2259 7.90128C12.6212 7.71899 13.0675 7.62784 13.5646 7.62784C14.0665 7.62784 14.5057 7.71899 14.8821 7.90128C15.2585 8.08357 15.5509 8.32978 15.7592 8.63991C15.9699 8.94768 16.0741 9.29332 16.0717 9.67685C16.0741 10.084 15.9474 10.4238 15.6918 10.696C15.4384 10.9683 15.1082 11.1411 14.701 11.2145V11.2713C15.236 11.34 15.6432 11.5258 15.9226 11.8288C16.2043 12.1295 16.344 12.5059 16.3416 12.9581C16.344 13.3724 16.2244 13.7405 15.983 14.0625C15.7438 14.3845 15.4136 14.6378 14.9922 14.8224C14.5708 15.0071 14.0878 15.0994 13.5433 15.0994ZM20.2985 15.1598C19.6877 15.1574 19.1621 15.0071 18.7218 14.7088C18.2838 14.4105 17.9464 13.9785 17.7097 13.4126C17.4753 12.8468 17.3593 12.1662 17.3617 11.3707C17.3617 10.5777 17.4789 9.90175 17.7132 9.34304C17.95 8.78433 18.2873 8.35937 18.7253 8.06818C19.1657 7.77462 19.69 7.62784 20.2985 7.62784C20.9069 7.62784 21.4301 7.77462 21.8681 8.06818C22.3084 8.36174 22.647 8.78788 22.8837 9.34659C23.1204 9.90294 23.2376 10.5777 23.2353 11.3707C23.2353 12.1686 23.1169 12.8504 22.8801 13.4162C22.6458 13.982 22.3096 14.4141 21.8716 14.7124C21.4337 15.0107 20.9093 15.1598 20.2985 15.1598ZM20.2985 13.8849C20.7151 13.8849 21.0478 13.6754 21.2963 13.2564C21.5449 12.8374 21.668 12.2088 21.6657 11.3707C21.6657 10.8191 21.6088 10.3598 21.4952 9.9929C21.3839 9.62595 21.2253 9.35014 21.0194 9.16548C20.8158 8.98082 20.5755 8.88849 20.2985 8.88849C19.8842 8.88849 19.5527 9.09564 19.3042 9.50994C19.0556 9.92424 18.9301 10.5445 18.9277 11.3707C18.9277 11.9295 18.9834 12.3958 19.0946 12.7699C19.2083 13.1416 19.3681 13.4209 19.574 13.608C19.78 13.7926 20.0215 13.8849 20.2985 13.8849ZM28.3125 13.6364V13.2528C28.3125 12.9616 28.3741 12.6941 28.4972 12.4503C28.6226 12.2041 28.8037 12.0076 29.0405 11.8608C29.2796 11.7116 29.5708 11.6371 29.9141 11.6371C30.2621 11.6371 30.5545 11.7105 30.7912 11.8572C31.0303 12.004 31.2102 12.2005 31.331 12.4467C31.4541 12.6906 31.5156 12.9593 31.5156 13.2528V13.6364C31.5156 13.9276 31.4541 14.1963 31.331 14.4425C31.2079 14.6863 31.0268 14.8816 30.7876 15.0284C30.5485 15.1776 30.2573 15.2521 29.9141 15.2521C29.5661 15.2521 29.2737 15.1776 29.0369 15.0284C28.8002 14.8816 28.6203 14.6863 28.4972 14.4425C28.3741 14.1963 28.3125 13.9276 28.3125 13.6364ZM29.3459 13.2528V13.6364C29.3459 13.8045 29.3861 13.9631 29.4666 14.1122C29.5495 14.2614 29.6986 14.3359 29.9141 14.3359C30.1295 14.3359 30.2763 14.2625 30.3544 14.1158C30.4349 13.969 30.4751 13.8092 30.4751 13.6364V13.2528C30.4751 13.08 30.4373 12.919 30.3615 12.7699C30.2857 12.6207 30.1366 12.5462 29.9141 12.5462C29.701 12.5462 29.553 12.6207 29.4702 12.7699C29.3873 12.919 29.3459 13.08 29.3459 13.2528ZM24.5803 9.47443V9.09091C24.5803 8.79735 24.643 8.52865 24.7685 8.2848C24.8939 8.03859 25.075 7.84209 25.3118 7.69531C25.5509 7.54853 25.8397 7.47514 26.1783 7.47514C26.5286 7.47514 26.8222 7.54853 27.0589 7.69531C27.2957 7.84209 27.4756 8.03859 27.5987 8.2848C27.7218 8.52865 27.7834 8.79735 27.7834 9.09091V9.47443C27.7834 9.76799 27.7206 10.0367 27.5952 10.2805C27.4721 10.5244 27.291 10.7197 27.0518 10.8665C26.8151 11.0109 26.5239 11.0831 26.1783 11.0831C25.8326 11.0831 25.5402 11.0097 25.3011 10.8629C25.0644 10.7138 24.8845 10.5185 24.7614 10.277C24.6406 10.0331 24.5803 9.76562 24.5803 9.47443ZM25.6207 9.09091V9.47443C25.6207 9.64725 25.661 9.80705 25.7415 9.95384C25.8243 10.1006 25.9699 10.174 26.1783 10.174C26.3961 10.174 26.544 10.1006 26.6222 9.95384C26.7027 9.80705 26.7429 9.64725 26.7429 9.47443V9.09091C26.7429 8.91809 26.705 8.7571 26.6293 8.60795C26.5535 8.45881 26.4032 8.38423 26.1783 8.38423C25.9676 8.38423 25.822 8.45999 25.7415 8.61151C25.661 8.76302 25.6207 8.92282 25.6207 9.09091ZM25.049 15L30.049 7.72727H30.9794L25.9794 15H25.049ZM35.8631 15V7.72727H36.7438V11.3352H36.829L40.0961 7.72727H41.2466L38.1926 11.0085L41.2466 15H40.1813L37.6529 11.6193L36.7438 12.642V15H35.8631ZM44.0884 15.1136C43.596 15.1136 43.1639 14.9964 42.7923 14.7621C42.4229 14.5277 42.1341 14.1998 41.9258 13.7784C41.7198 13.357 41.6168 12.8646 41.6168 12.3011C41.6168 11.733 41.7198 11.237 41.9258 10.8132C42.1341 10.3894 42.4229 10.0604 42.7923 9.82599C43.1639 9.59162 43.596 9.47443 44.0884 9.47443C44.5808 9.47443 45.0117 9.59162 45.381 9.82599C45.7527 10.0604 46.0415 10.3894 46.2475 10.8132C46.4558 11.237 46.56 11.733 46.56 12.3011C46.56 12.8646 46.4558 13.357 46.2475 13.7784C46.0415 14.1998 45.7527 14.5277 45.381 14.7621C45.0117 14.9964 44.5808 15.1136 44.0884 15.1136ZM44.0884 14.3608C44.4625 14.3608 44.7702 14.2649 45.0117 14.0732C45.2532 13.8814 45.4319 13.6293 45.5479 13.3168C45.6639 13.0043 45.7219 12.6657 45.7219 12.3011C45.7219 11.9366 45.6639 11.5968 45.5479 11.282C45.4319 10.9671 45.2532 10.7126 45.0117 10.5185C44.7702 10.3243 44.4625 10.2273 44.0884 10.2273C43.7144 10.2273 43.4066 10.3243 43.1651 10.5185C42.9237 10.7126 42.7449 10.9671 42.6289 11.282C42.5129 11.5968 42.4549 11.9366 42.4549 12.3011C42.4549 12.6657 42.5129 13.0043 42.6289 13.3168C42.7449 13.6293 42.9237 13.8814 43.1651 14.0732C43.4066 14.2649 43.7144 14.3608 44.0884 14.3608ZM47.8393 15V9.54545H48.649V10.3977H48.72C48.8336 10.1065 49.0171 9.88045 49.2704 9.71946C49.5237 9.55611 49.8279 9.47443 50.1831 9.47443C50.5429 9.47443 50.8424 9.55611 51.0815 9.71946C51.323 9.88045 51.5112 10.1065 51.6461 10.3977H51.7029C51.8426 10.116 52.0521 9.89228 52.3315 9.72656C52.6109 9.55848 52.9458 9.47443 53.3365 9.47443C53.8242 9.47443 54.2231 9.62713 54.5332 9.93253C54.8433 10.2356 54.9984 10.7079 54.9984 11.3494V15H54.1603V11.3494C54.1603 10.947 54.0502 10.6593 53.8301 10.4865C53.6099 10.3137 53.3507 10.2273 53.0524 10.2273C52.6689 10.2273 52.3717 10.3433 52.161 10.5753C51.9503 10.8049 51.845 11.0961 51.845 11.4489V15H50.9927V11.2642C50.9927 10.9541 50.8921 10.7043 50.6909 10.5149C50.4896 10.3232 50.2304 10.2273 49.9132 10.2273C49.6954 10.2273 49.4918 10.2853 49.3024 10.4013C49.1154 10.5173 48.9638 10.6783 48.8478 10.8842C48.7342 11.0878 48.6774 11.3234 48.6774 11.5909V15H47.8393ZM56.5307 15V9.54545H57.3688V15H56.5307ZM56.9569 8.63636C56.7935 8.63636 56.6526 8.58073 56.5343 8.46946C56.4183 8.35819 56.3603 8.22443 56.3603 8.06818C56.3603 7.91193 56.4183 7.77817 56.5343 7.6669C56.6526 7.55563 56.7935 7.5 56.9569 7.5C57.1202 7.5 57.2599 7.55563 57.3759 7.6669C57.4943 7.77817 57.5534 7.91193 57.5534 8.06818C57.5534 8.22443 57.4943 8.35819 57.3759 8.46946C57.2599 8.58073 57.1202 8.63636 56.9569 8.63636ZM62.7674 10.767L62.0146 10.9801C61.9672 10.8546 61.8974 10.7327 61.805 10.6143C61.7151 10.4936 61.592 10.3942 61.4357 10.3161C61.2795 10.2379 61.0794 10.1989 60.8356 10.1989C60.5018 10.1989 60.2236 10.2758 60.0011 10.4297C59.7809 10.5812 59.6708 10.7741 59.6708 11.0085C59.6708 11.2169 59.7466 11.3814 59.8981 11.5021C60.0496 11.6229 60.2863 11.7235 60.6083 11.804L61.418 12.0028C61.9057 12.1212 62.2691 12.3023 62.5082 12.5462C62.7473 12.7876 62.8668 13.099 62.8668 13.4801C62.8668 13.7926 62.7769 14.072 62.5969 14.3182C62.4194 14.5644 62.1708 14.7585 61.8512 14.9006C61.5316 15.0426 61.1599 15.1136 60.7362 15.1136C60.1798 15.1136 59.7193 14.9929 59.3548 14.7514C58.9902 14.5099 58.7594 14.1572 58.6623 13.6932L59.4577 13.4943C59.5335 13.7879 59.6767 14.008 59.8874 14.1548C60.1005 14.3016 60.3787 14.375 60.7219 14.375C61.1126 14.375 61.4227 14.2921 61.6523 14.1264C61.8844 13.9583 62.0004 13.7571 62.0004 13.5227C62.0004 13.3333 61.9341 13.1747 61.8015 13.0469C61.6689 12.9167 61.4653 12.8196 61.1907 12.7557L60.2816 12.5426C59.7821 12.4242 59.4151 12.2408 59.1808 11.9922C58.9487 11.7412 58.8327 11.4276 58.8327 11.0511C58.8327 10.7434 58.9192 10.4711 59.092 10.2344C59.2672 9.99763 59.5051 9.81179 59.8058 9.67685C60.1088 9.5419 60.4521 9.47443 60.8356 9.47443C61.3754 9.47443 61.7991 9.5928 62.1069 9.82955C62.417 10.0663 62.6372 10.3788 62.7674 10.767ZM64.1284 15V9.54545H64.9664V15H64.1284ZM64.5545 8.63636C64.3912 8.63636 64.2503 8.58073 64.1319 8.46946C64.0159 8.35819 63.9579 8.22443 63.9579 8.06818C63.9579 7.91193 64.0159 7.77817 64.1319 7.6669C64.2503 7.55563 64.3912 7.5 64.5545 7.5C64.7179 7.5 64.8575 7.55563 64.9735 7.6669C65.0919 7.77817 65.1511 7.91193 65.1511 8.06818C65.1511 8.22443 65.0919 8.35819 64.9735 8.46946C64.8575 8.58073 64.7179 8.63636 64.5545 8.63636Z" fill="white"/>
</svg>
