<svg width="20" height="20" viewBox="0 0 20 20" fill="none" xmlns="http://www.w3.org/2000/svg">
<g filter="url(#filter0_d_65_11175)">
<path d="M9.8998 12.4917C9.74147 12.4917 9.58314 12.4333 9.45814 12.3083L7.3248 10.175C7.08314 9.93333 7.08314 9.53333 7.3248 9.29166C7.56647 9.05 7.96647 9.05 8.20814 9.29166L9.8998 10.9833L11.5915 9.29166C11.8331 9.05 12.2331 9.05 12.4748 9.29166C12.7165 9.53333 12.7165 9.93333 12.4748 10.175L10.3415 12.3083C10.2165 12.4333 10.0581 12.4917 9.8998 12.4917Z" fill="white"/>
</g>
<g filter="url(#filter1_d_65_11175)">
<path d="M9.8999 12.4333C9.55824 12.4333 9.2749 12.15 9.2749 11.8083V3.33333C9.2749 2.99166 9.55824 2.70833 9.8999 2.70833C10.2416 2.70833 10.5249 2.99166 10.5249 3.33333V11.8083C10.5249 12.15 10.2416 12.4333 9.8999 12.4333Z" fill="white"/>
</g>
<g filter="url(#filter2_d_65_11175)">
<path d="M10.0002 17.4417C5.7085 17.4417 2.7085 14.4417 2.7085 10.15C2.7085 9.80833 2.99183 9.52499 3.3335 9.52499C3.67516 9.52499 3.9585 9.80833 3.9585 10.15C3.9585 13.7083 6.44183 16.1917 10.0002 16.1917C13.5585 16.1917 16.0418 13.7083 16.0418 10.15C16.0418 9.80833 16.3252 9.52499 16.6668 9.52499C17.0085 9.52499 17.2918 9.80833 17.2918 10.15C17.2918 14.4417 14.2918 17.4417 10.0002 17.4417Z" fill="white"/>
</g>
<defs>
<filter id="filter0_d_65_11175" x="5.14355" y="7.11041" width="9.5127" height="7.38126" filterUnits="userSpaceOnUse" color-interpolation-filters="sRGB">
<feFlood flood-opacity="0" result="BackgroundImageFix"/>
<feColorMatrix in="SourceAlpha" type="matrix" values="0 0 0 0 0 0 0 0 0 0 0 0 0 0 0 0 0 0 127 0" result="hardAlpha"/>
<feOffset/>
<feGaussianBlur stdDeviation="1"/>
<feComposite in2="hardAlpha" operator="out"/>
<feColorMatrix type="matrix" values="0 0 0 0 0 0 0 0 0 0 0 0 0 0 0 0 0 0 0.15 0"/>
<feBlend mode="normal" in2="BackgroundImageFix" result="effect1_dropShadow_65_11175"/>
<feBlend mode="normal" in="SourceGraphic" in2="effect1_dropShadow_65_11175" result="shape"/>
</filter>
<filter id="filter1_d_65_11175" x="7.2749" y="0.708328" width="5.25" height="13.725" filterUnits="userSpaceOnUse" color-interpolation-filters="sRGB">
<feFlood flood-opacity="0" result="BackgroundImageFix"/>
<feColorMatrix in="SourceAlpha" type="matrix" values="0 0 0 0 0 0 0 0 0 0 0 0 0 0 0 0 0 0 127 0" result="hardAlpha"/>
<feOffset/>
<feGaussianBlur stdDeviation="1"/>
<feComposite in2="hardAlpha" operator="out"/>
<feColorMatrix type="matrix" values="0 0 0 0 0 0 0 0 0 0 0 0 0 0 0 0 0 0 0.15 0"/>
<feBlend mode="normal" in2="BackgroundImageFix" result="effect1_dropShadow_65_11175"/>
<feBlend mode="normal" in="SourceGraphic" in2="effect1_dropShadow_65_11175" result="shape"/>
</filter>
<filter id="filter2_d_65_11175" x="0.708496" y="7.52499" width="18.5835" height="11.9167" filterUnits="userSpaceOnUse" color-interpolation-filters="sRGB">
<feFlood flood-opacity="0" result="BackgroundImageFix"/>
<feColorMatrix in="SourceAlpha" type="matrix" values="0 0 0 0 0 0 0 0 0 0 0 0 0 0 0 0 0 0 127 0" result="hardAlpha"/>
<feOffset/>
<feGaussianBlur stdDeviation="1"/>
<feComposite in2="hardAlpha" operator="out"/>
<feColorMatrix type="matrix" values="0 0 0 0 0 0 0 0 0 0 0 0 0 0 0 0 0 0 0.15 0"/>
<feBlend mode="normal" in2="BackgroundImageFix" result="effect1_dropShadow_65_11175"/>
<feBlend mode="normal" in="SourceGraphic" in2="effect1_dropShadow_65_11175" result="shape"/>
</filter>
</defs>
</svg>
